<svg width="45" height="44" viewBox="0 0 45 44" fill="none" xmlns="http://www.w3.org/2000/svg">
<path d="M16.5854 12L13.5854 16V30C13.5854 30.5304 13.7962 31.0391 14.1712 31.4142C14.5463 31.7893 15.055 32 15.5854 32H29.5854C30.1159 32 30.6246 31.7893 30.9997 31.4142C31.3747 31.0391 31.5854 30.5304 31.5854 30V16L28.5854 12H16.5854Z" stroke="#B3B3B3" stroke-width="1.5" stroke-linecap="round" stroke-linejoin="round"/>
<path d="M13.5854 16H31.5854" stroke="#B3B3B3" stroke-width="1.5" stroke-linecap="round" stroke-linejoin="round"/>
<path d="M26.5854 20C26.5854 21.0609 26.164 22.0783 25.4139 22.8284C24.6637 23.5786 23.6463 24 22.5854 24C21.5246 24 20.5072 23.5786 19.757 22.8284C19.0069 22.0783 18.5854 21.0609 18.5854 20" stroke="#B3B3B3" stroke-width="1.5" stroke-linecap="round" stroke-linejoin="round"/>
</svg>
