<svg width="45" height="44" viewBox="0 0 45 44" fill="none" xmlns="http://www.w3.org/2000/svg">
<path d="M27.5854 24H27.5954" stroke="#B3B3B3" stroke-width="2" stroke-linecap="round" stroke-linejoin="round"/>
<path d="M17.5854 17H29.5854C30.1159 17 30.6246 17.2107 30.9997 17.5858C31.3747 17.9609 31.5854 18.4696 31.5854 19V29C31.5854 29.5304 31.3747 30.0391 30.9997 30.4142C30.6246 30.7893 30.1159 31 29.5854 31H15.5854C15.055 31 14.5463 30.7893 14.1712 30.4142C13.7962 30.0391 13.5854 29.5304 13.5854 29V15C13.5854 14.4696 13.7962 13.9609 14.1712 13.5858C14.5463 13.2107 15.055 13 15.5854 13H29.5854" stroke="#B3B3B3" stroke-width="1.5" stroke-linecap="round" stroke-linejoin="round"/>
</svg>
