<svg width="45" height="44" viewBox="0 0 45 44" fill="none" xmlns="http://www.w3.org/2000/svg">
<path d="M31.5854 26V18C31.5851 17.6493 31.4925 17.3048 31.317 17.0012C31.1415 16.6975 30.8892 16.4454 30.5854 16.27L23.5854 12.27C23.2814 12.0945 22.9365 12.0021 22.5854 12.0021C22.2344 12.0021 21.8895 12.0945 21.5854 12.27L14.5854 16.27C14.2817 16.4454 14.0294 16.6975 13.8539 17.0012C13.6784 17.3048 13.5858 17.6493 13.5854 18V26C13.5858 26.3507 13.6784 26.6952 13.8539 26.9988C14.0294 27.3025 14.2817 27.5546 14.5854 27.73L21.5854 31.73C21.8895 31.9055 22.2344 31.9979 22.5854 31.9979C22.9365 31.9979 23.2814 31.9055 23.5854 31.73L30.5854 27.73C30.8892 27.5546 31.1415 27.3025 31.317 26.9988C31.4925 26.6952 31.5851 26.3507 31.5854 26Z" stroke="#B3B3B3" stroke-width="1.5" stroke-linecap="round" stroke-linejoin="round"/>
<path d="M22.5854 26C24.7946 26 26.5854 24.2091 26.5854 22C26.5854 19.7909 24.7946 18 22.5854 18C20.3763 18 18.5854 19.7909 18.5854 22C18.5854 24.2091 20.3763 26 22.5854 26Z" stroke="#B3B3B3" stroke-width="1.5" stroke-linecap="round" stroke-linejoin="round"/>
</svg>
